#!OML:ASF G:\JayActor3\Patient Classification 1\Patient 1\Session 5\male.ASF
:FULLY-SPECIFIED
:DEGREES
1254
root -65.5561 16.9005 -9.38446 360.107 -140.248 -363.425
lowerback 14.2158 2.01806 -7.46502
upperback 3.98511 1.21127 -0.737507
thorax -3.89157 0.476503 3.23633
lowerneck -11.5316 -2.89589 -1.42743
upperneck 9.05044 -4.96858 9.40878
head 4.89588 -1.98013 2.76836
rclavicle 4.32357e-014 1.19271e-015
rhumerus -32.1555 0.280744 -87.5598
rradius 35.6656
rwrist -7.70846
rhand -18.7774 -3.57749
rfingers 7.12502
rthumb 7.52003 -33.4238
lclavicle 4.32357e-014 1.19271e-015
lhumerus -130.848 -68.895 187.003
lradius 51.8162
lwrist 5.03099
lhand -39.7379 98.9972
lfingers 7.12502
lthumb -12.7151 290.596
rfemur -22.7464 -0.449484 28.1769
rtibia 34.67
rfoot -23.5723 -22.2056
rtoes 17.1821
lfemur 5.61693 28.1613 -18.7424
ltibia 37.2176
lfoot 1.62002 -5.93261
ltoes 43.9635
1255
root -65.6242 16.926 -9.44698 359.847 -140.837 -362.962
lowerback 13.8822 1.96464 -7.16375
upperback 3.89753 1.23395 -0.608289
thorax -3.80269 0.493784 3.2029
lowerneck -11.568 -2.72127 -1.93718
upperneck 9.67776 -4.77227 9.83702
head 5.10704 -1.85984 3.00246
rclavicle -3.72224e-014 3.1408e-014
rhumerus -32.2069 0.441333 -87.6041
rradius 35.7063
rwrist -7.76445
rhand -18.2105 -3.32412
rfingers 7.12502
rthumb 8.06722 -33.1501
lclavicle -3.72224e-014 3.1408e-014
lhumerus -134.365 -68.3277 190.401
lradius 53.754
lwrist 6.50456
lhand -40.2605 98.0486
lfingers 7.12502
lthumb -13.2189 291.512
rfemur -22.0752 -0.192397 28.5658
rtibia 34.0533
rfoot -23.1213 -22.0935
rtoes 17.4712
lfemur 4.68444 28.1266 -18.276
ltibia 39.1133
lfoot 2.65519 -6.24775
ltoes 43.8685
1256
root -65.6905 16.9505 -9.50714 359.54 -141.411 -362.511
lowerback 13.6406 1.91242 -6.86413
upperback 3.82532 1.24499 -0.475679
thorax -3.74603 0.504421 3.17476
lowerneck -11.7801 -2.48977 -2.43712
upperneck 10.575 -4.51695 10.1794
head 5.42351 -1.70415 3.21611
rclavicle -9.7156e-014 1.19271e-015
rhumerus -32.2336 0.582797 -87.626
rradius 35.7183
rwrist -7.79625
rhand -17.6996 -2.98839
rfingers 7.12502
rthumb 8.56027 -32.7949
lclavicle -9.7156e-014 1.19271e-015
lhumerus -137.873 -67.6099 193.824
lradius 56.0258
lwrist 8.19208
lhand -40.8006 97.0206
lfingers 7.12502
lthumb -13.7394 292.506
rfemur -21.3423 0.0438838 28.9438
rtibia 33.4207
rfoot -22.6378 -21.9876
rtoes 17.7121
lfemur 3.80085 28.0067 -17.8055
ltibia 40.968
lfoot 3.36788 -6.86418
ltoes 43.5266
1257
root -65.7542 16.9728 -9.56522 359.186 -142.004 -362.068
lowerback 13.4824 1.86367 -6.57099
upperback 3.76855 1.24842 -0.342268
thorax -3.71755 0.510239 3.15124
lowerneck -12.0921 -2.19894 -2.93153
upperneck 11.6453 -4.19234 10.4685
head 5.80367 -1.51336 3.42396
rclavicle -6.83819e-014 7.95139e-016
rhumerus -32.2379 0.722563 -87.6403
rradius 35.6993
rwrist -7.78518
rhand -17.2716 -2.53857
rfingers 7.12502
rthumb 8.97329 -32.3277
lclavicle -6.83819e-014 7.95139e-016
lhumerus -141.109 -66.806 196.968
lradius 58.5593
lwrist 10.057
lhand -41.3443 95.9973
lfingers 7.12502
lthumb -14.2634 293.493
rfemur -20.5722 0.286698 29.3241
rtibia 32.8151
rfoot -22.1615 -21.874
rtoes 17.8968
lfemur 2.95764 27.8377 -17.3146
ltibia 42.7773
lfoot 3.83296 -7.73604
ltoes 42.8802
1258
root -65.8144 16.9892 -9.62018 358.866 -142.595 -361.703
lowerback 13.378 1.81827 -6.34343
upperback 3.71579 1.23948 -0.221125
thorax -3.71369 0.509738 3.15298
lowerneck -12.3879 -1.934 -3.38156
upperneck 12.6269 -3.89905 10.7346
head 6.154 -1.34397 3.61982
rclavicle -3.18055e-014 1.55052e-014
rhumerus -32.2656 0.918279 -87.6573
rradius 35.7348
rwrist -7.82856
rhand -17.0398 -2.18223
rfingers 7.12502
rthumb 9.19698 -31.9617
lclavicle -3.18055e-014 1.55052e-014
lhumerus -143.762 -66.0365 199.503
lradius 61.1042
lwrist 11.9104
lhand -41.9231 95.1559
lfingers 7.12502
lthumb -14.8211 294.294
rfemur -19.8354 0.532514 29.6447
rtibia 32.2664
rfoot -21.7065 -21.7377
rtoes 18.1235
lfemur 2.11483 27.6387 -16.8846
ltibia 44.5135
lfoot 4.12132 -8.8659
ltoes 41.884
1259
root -65.8714 17.0012 -9.67255 358.552 -143.216 -361.344
lowerback 13.2975 1.77787 -6.13496
upperback 3.67194 1.23087 -0.100306
thorax -3.71386 0.508581 3.16473
lowerneck -12.595 -1.71799 -3.81022
upperneck 13.3942 -3.66532 11.0514
head 6.42658 -1.20982 3.82575
rclavicle -5.00937e-014 6.95746e-015
rhumerus -32.2819 1.14453 -87.6829
rradius 35.7963
rwrist -7.88785
rhand -16.7769 -1.80793
rfingers 7.12502
rthumb 9.45064 -31.576
lclavicle -5.00937e-014 6.95746e-015
lhumerus -145.768 -65.3806 201.337
lradius 63.4637
lwrist 13.6721
lhand -42.5563 94.6164
lfingers 7.12502
lthumb -15.431 294.788
rfemur -19.1443 0.826853 29.9736
rtibia 31.7782
rfoot -21.3072 -21.6131
rtoes 18.34
lfemur 1.25015 27.4271 -16.4566
ltibia 46.1521
lfoot 4.33842 -10.1684
ltoes 40.6116
1260
root -65.9266 17.0119 -9.72291 358.26 -143.869 -361.015
lowerback 13.2262 1.74529 -5.95531
upperback 3.63834 1.22616 0.0144245
thorax -3.70896 0.508331 3.18555
lowerneck -12.6695 -1.58123 -4.22043
upperneck 13.8682 -3.52972 11.4427
head 6.59191 -1.1291 4.04294
rclavicle 2.05245e-014 3.26007e-014
rhumerus -32.3064 1.43809 -87.7365
rradius 35.9415
rwrist -8.05686
rhand -16.5794 -1.5433
rfingers 7.12502
rthumb 9.64113 -31.3027
lclavicle 2.05245e-014 3.26007e-014
lhumerus -147.269 -64.824 202.617
lradius 65.5927
lwrist 15.3686
lhand -43.1633 94.3459
lfingers 7.12502
lthumb -16.0157 295.012
rfemur -18.49 1.16061 30.2835
rtibia 31.3512
rfoot -20.9954 -21.4605
rtoes 18.6109
lfemur 0.379335 27.2014 -16.0578
ltibia 47.6568
lfoot 4.586 -11.5247
ltoes 39.0695
1261
root -65.981 17.0214 -9.77138 358.003 -144.549 -360.733
lowerback 13.1681 1.71609 -5.82046
upperback 3.6097 1.21722 0.12016
thorax -3.70623 0.505551 3.22271
lowerneck -12.6702 -1.54941 -4.57188
upperneck 14.0864 -3.53201 11.8708
head 6.67473 -1.11752 4.24659
rclavicle 7.8669e-014 -2.8625e-014
rhumerus -32.2934 1.71387 -87.7974
rradius 36.0693
rwrist -8.20112
rhand -16.4909 -1.48503
rfingers 7.12502
rthumb 9.72651 -31.2404
lclavicle 7.8669e-014 -2.8625e-014
lhumerus -148.439 -64.2888 203.501
lradius 67.4282
lwrist 16.9549
lhand -43.7846 94.4725
lfingers 7.12502
lthumb -16.6138 294.836
rfemur -17.8659 1.51275 30.5573
rtibia 30.9638
rfoot -20.7237 -21.326
rtoes 18.7787
lfemur -0.491046 26.938 -15.7209
ltibia 49.0036
lfoot 4.83486 -12.8782
ltoes 37.3535
1262
root -66.0349 17.0298 -9.81791 357.768 -145.26 -360.463
lowerback 13.1141 1.69884 -5.69305
upperback 3.58603 1.22178 0.222544
thorax -3.70189 0.50894 3.25823
lowerneck -12.7447 -1.67878 -4.7013
upperneck 14.1454 -3.74991 12.1367
head 6.73418 -1.21008 4.33576
rclavicle -2.62396e-014 2.26615e-014
rhumerus -32.2269 1.90719 -87.8468
rradius 36.1561
rwrist -8.28818
rhand -16.4116 -1.41416
rfingers 7.12502
rthumb 9.80306 -31.166
lclavicle -2.62396e-014 2.26615e-014
lhumerus -149.459 -63.6573 204.302
lradius 69.0275
lwrist 18.5277
lhand -44.3783 95.0622
lfingers 7.12502
lthumb -17.1854 294.198
rfemur -17.2793 1.88662 30.8245
rtibia 30.6171
rfoot -20.4913 -21.192
rtoes 18.886
lfemur -1.36953 26.6272 -15.4246
ltibia 50.1826
lfoot 5.08799 -14.1718
ltoes 35.5172
1263
root -66.0889 17.0369 -9.86263 357.559 -146.006 -360.197
lowerback 13.0523 1.70531 -5.5638
upperback 3.56871 1.25765 0.321893
thorax -3.6896 0.52714 3.28447
lowerneck -12.9598 -1.95783 -4.54861
upperneck 14.1284 -4.17188 12.1626
head 6.80467 -1.39914 4.27532
rclavicle 1.00784e-013 -1.61016e-014
rhumerus -32.1457 2.01469 -87.8663
rradius 36.2417
rwrist -8.35644
rhand -16.4177 -1.45362
rfingers 7.12502
rthumb 9.79713 -31.2057
lclavicle 1.00784e-013 -1.61016e-014
lhumerus -150.534 -62.8574 205.323
lradius 70.4106
lwrist 20.1829
lhand -44.9097 96.214
lfingers 7.12502
lthumb -17.6968 293.001
rfemur -16.7135 2.26721 31.0934
rtibia 30.2582
rfoot -20.2341 -21.0601
rtoes 18.847
lfemur -2.24843 26.2618 -15.1692
ltibia 51.1592
lfoot 5.34352 -15.369
ltoes 33.6151
1264
root -66.1415 17.0426 -9.90575 357.448 -146.793 -359.973
lowerback 12.9452 1.69219 -5.46592
upperback 3.53957 1.2664 0.404256
thorax -3.66256 0.532535 3.31544
lowerneck -13.1906 -2.20452 -4.21875
upperneck 13.9822 -4.50639 11.8977
head 6.81715 -1.55734 4.09475
rclavicle -2.6339e-015 7.95139e-016
rhumerus -32.0289 2.13354 -87.9038
rradius 36.2864
rwrist -8.38974
rhand -16.4635 -1.55891
rfingers 7.12502
rthumb 9.75298 -31.3131
lclavicle -2.6339e-015 7.95139e-016
lhumerus -146.427 -62.3401 201.956
lradius 69.4361
lwrist 19.438
lhand -46.1379 98.6163
lfingers 7.12502
lthumb -18.8783 290.488
rfemur -16.2525 2.68073 31.331
rtibia 29.9442
rfoot -19.9607 -20.9229
rtoes 18.7104
lfemur -3.19665 25.8483 -15.0147
ltibia 51.9572
lfoot 5.53934 -16.4871
ltoes 31.64
